<?xml version="1.0" encoding="UTF-8"?>
<svg xmlns="http://www.w3.org/2000/svg" version="1.1" viewBox="0 0 1000 1000">
  <defs>
    <style>
      .cls-1 {
        fill: #84b02c;
      }

      .cls-1, .cls-2, .cls-3, .cls-4 {
        fill-rule: evenodd;
      }

      .cls-5, .cls-4 {
        fill: #018ede;
      }

      .cls-2, .cls-6 {
        fill: #9c3;
      }

      .cls-3 {
        fill: #6f9426;
      }

      .cls-7 {
        fill: #ed1c24;
      }
    </style>
  </defs>
  <!-- Generator: Adobe Illustrator 28.7.1, SVG Export Plug-In . SVG Version: 1.2.0 Build 142)  -->
  <g>
    <g id="Layer_1">
      <g>
        <path d="M-845.771,1550.425h4.137v15.452h.143c.856-1.236,1.712-2.377,2.52-3.423l9.794-12.029h5.135l-11.602,13.598,12.505,18.448h-4.897l-10.555-15.738-3.043,3.519v12.22h-4.137v-32.046Z"/>
        <path d="M-803.406,1567.446h-12.457v11.554h13.884v3.471h-18.02v-32.046h17.307v3.471h-13.17v10.127h12.457v3.424Z"/>
        <path d="M-774.211,1581.425c-1.521.761-4.564,1.521-8.463,1.521-9.034,0-15.833-5.706-15.833-16.214,0-10.032,6.799-16.831,16.736-16.831,3.994,0,6.514.855,7.607,1.427l-.999,3.375c-1.569-.76-3.804-1.331-6.466-1.331-7.513,0-12.505,4.803-12.505,13.218,0,7.846,4.517,12.886,12.314,12.886,2.52,0,5.087-.523,6.751-1.332l.856,3.281Z"/>
        <path d="M-764.89,1550.425v13.407h15.5v-13.407h4.184v32.046h-4.184v-15.024h-15.5v15.024h-4.136v-32.046h4.136Z"/>
        <path d="M-733.888,1550.425v32.046h-4.137v-32.046h4.137Z"/>
        <path d="M-720.574,1553.943h-9.747v-3.519h23.726v3.519h-9.794v28.527h-4.185v-28.527Z"/>
        <path d="M-701.412,1572.391l-3.328,10.08h-4.279l10.889-32.046h4.992l10.936,32.046h-4.422l-3.424-10.08h-11.363ZM-690.904,1569.158l-3.138-9.225c-.714-2.092-1.188-3.994-1.664-5.848h-.096c-.476,1.901-.998,3.851-1.616,5.8l-3.138,9.272h9.651Z"/>
        <path d="M-645.02,1581.425c-1.521.761-4.564,1.521-8.463,1.521-9.034,0-15.833-5.706-15.833-16.214,0-10.032,6.799-16.831,16.736-16.831,3.993,0,6.514.855,7.607,1.427l-.999,3.375c-1.568-.76-3.804-1.331-6.466-1.331-7.513,0-12.505,4.803-12.505,13.218,0,7.846,4.517,12.886,12.314,12.886,2.52,0,5.088-.523,6.752-1.332l.855,3.281Z"/>
        <path d="M-634.463,1572.391l-3.328,10.08h-4.279l10.889-32.046h4.992l10.936,32.046h-4.422l-3.424-10.08h-11.363ZM-623.955,1569.158l-3.138-9.225c-.714-2.092-1.188-3.994-1.664-5.848h-.096c-.476,1.901-.998,3.851-1.616,5.8l-3.138,9.272h9.651Z"/>
        <path d="M-610.545,1550.805c1.997-.333,4.612-.618,7.94-.618,4.089,0,7.085.951,8.986,2.663,1.759,1.521,2.806,3.851,2.806,6.704,0,2.9-.856,5.183-2.473,6.847-2.188,2.329-5.753,3.518-9.795,3.518-1.236,0-2.377-.047-3.328-.285v12.838h-4.137v-31.666ZM-606.408,1566.258c.903.237,2.045.332,3.424.332,4.992,0,8.035-2.425,8.035-6.847,0-4.231-2.996-6.275-7.561-6.275-1.807,0-3.186.143-3.898.332v12.458Z"/>
        <path d="M-581.111,1550.425v32.046h-4.137v-32.046h4.137Z"/>
        <path d="M-567.798,1553.943h-9.747v-3.519h23.726v3.519h-9.794v28.527h-4.185v-28.527Z"/>
        <path d="M-548.636,1572.391l-3.328,10.08h-4.279l10.889-32.046h4.992l10.936,32.046h-4.422l-3.423-10.08h-11.364ZM-538.128,1569.158l-3.138-9.225c-.714-2.092-1.188-3.994-1.664-5.848h-.096c-.476,1.901-.998,3.851-1.616,5.8l-3.138,9.272h9.651Z"/>
        <path d="M-524.718,1550.425h4.137v28.575h13.693v3.471h-17.83v-32.046Z"/>
        <path d="M-488.058,1550.425v32.046h-4.137v-32.046h4.137Z"/>
        <path d="M-480.83,1582.471v-32.046h4.518l10.27,16.213c2.377,3.756,4.231,7.132,5.753,10.413l.096-.048c-.381-4.279-.476-8.178-.476-13.171v-13.407h3.898v32.046h-4.184l-10.176-16.261c-2.234-3.566-4.374-7.228-5.99-10.698l-.143.048c.237,4.041.333,7.893.333,13.218v13.693h-3.899Z"/>
        <path d="M-442.506,1582.471l-10.46-32.046h4.469l4.993,15.785c1.379,4.326,2.567,8.226,3.423,11.981h.095c.904-3.709,2.235-7.75,3.661-11.934l5.421-15.833h4.422l-11.459,32.046h-4.564Z"/>
        <path d="M-406.416,1567.446h-12.457v11.554h13.884v3.471h-18.021v-32.046h17.307v3.471h-13.17v10.127h12.457v3.424Z"/>
        <path d="M-400.186,1577.431c1.854,1.142,4.564,2.092,7.417,2.092,4.231,0,6.704-2.234,6.704-5.468,0-2.995-1.712-4.707-6.038-6.371-5.23-1.854-8.464-4.564-8.464-9.081,0-4.992,4.137-8.701,10.365-8.701,3.281,0,5.658.761,7.085,1.569l-1.142,3.376c-1.046-.571-3.186-1.521-6.086-1.521-4.374,0-6.038,2.614-6.038,4.802,0,2.995,1.949,4.47,6.371,6.181,5.421,2.093,8.178,4.707,8.178,9.415,0,4.944-3.661,9.224-11.221,9.224-3.091,0-6.466-.903-8.178-2.045l1.046-3.471Z"/>
        <path d="M-370.087,1553.943h-9.747v-3.519h23.726v3.519h-9.794v28.527h-4.185v-28.527Z"/>
        <path d="M-325.534,1568.396c-.238-4.469-.523-9.842-.476-13.836h-.143c-1.094,3.757-2.425,7.75-4.042,12.172l-5.657,15.548h-3.139l-5.183-15.262c-1.521-4.518-2.805-8.654-3.708-12.458h-.096c-.095,3.994-.333,9.367-.618,14.169l-.855,13.741h-3.946l2.234-32.046h5.277l5.469,15.5c1.331,3.946,2.425,7.465,3.232,10.793h.143c.809-3.233,1.95-6.752,3.376-10.793l5.706-15.5h5.277l1.997,32.046h-4.042l-.808-14.074Z"/>
        <path d="M-297.718,1567.446h-12.457v11.554h13.884v3.471h-18.021v-32.046h17.308v3.471h-13.171v10.127h12.457v3.424Z"/>
        <path d="M-290.917,1582.471v-32.046h4.518l10.27,16.213c2.377,3.756,4.231,7.132,5.753,10.413l.096-.048c-.381-4.279-.476-8.178-.476-13.171v-13.407h3.898v32.046h-4.184l-10.175-16.261c-2.235-3.566-4.375-7.228-5.991-10.698l-.143.048c.237,4.041.333,7.893.333,13.218v13.693h-3.899Z"/>
        <path d="M-253.544,1553.943h-9.747v-3.519h23.726v3.519h-9.794v28.527h-4.185v-28.527Z"/>
        <path d="M-225.918,1550.425h4.137v28.575h13.693v3.471h-17.83v-32.046Z"/>
        <path d="M-199.338,1550.425v32.046h-4.137v-32.046h4.137Z"/>
        <path d="M-165.104,1568.396c-.238-4.469-.523-9.842-.476-13.836h-.143c-1.094,3.757-2.425,7.75-4.042,12.172l-5.657,15.548h-3.139l-5.183-15.262c-1.521-4.518-2.805-8.654-3.708-12.458h-.096c-.095,3.994-.333,9.367-.618,14.169l-.855,13.741h-3.946l2.234-32.046h5.278l5.468,15.5c1.331,3.946,2.425,7.465,3.232,10.793h.143c.809-3.233,1.95-6.752,3.376-10.793l5.706-15.5h5.277l1.997,32.046h-4.042l-.808-14.074Z"/>
        <path d="M-149.744,1550.425v32.046h-4.137v-32.046h4.137Z"/>
        <path d="M-136.431,1553.943h-9.747v-3.519h23.726v3.519h-9.794v28.527h-4.185v-28.527Z"/>
        <path d="M-102.291,1567.446h-12.457v11.554h13.884v3.471h-18.021v-32.046h17.307v3.471h-13.17v10.127h12.457v3.424Z"/>
        <path d="M-95.49,1550.853c2.521-.381,5.516-.666,8.796-.666,5.943,0,10.176,1.379,12.98,3.994,2.853,2.615,4.517,6.323,4.517,11.506,0,5.23-1.616,9.51-4.611,12.457-2.996,2.996-7.94,4.612-14.169,4.612-2.948,0-5.421-.143-7.513-.38v-31.523ZM-91.354,1579.19c1.046.189,2.567.237,4.185.237,8.843,0,13.646-4.945,13.646-13.599.048-7.56-4.231-12.361-12.98-12.361-2.14,0-3.756.189-4.85.428v25.295Z"/>
      </g>
      <g>
        <path d="M-859.771,1430.425h4.137v15.452h.143c.856-1.236,1.712-2.377,2.52-3.423l9.794-12.029h5.135l-11.602,13.598,12.505,18.448h-4.897l-10.555-15.738-3.043,3.519v12.22h-4.137v-32.046Z"/>
        <path d="M-817.406,1447.446h-12.457v11.554h13.884v3.471h-18.02v-32.046h17.307v3.471h-13.17v10.127h12.457v3.424Z"/>
        <path d="M-788.211,1461.425c-1.521.761-4.564,1.521-8.463,1.521-9.034,0-15.833-5.706-15.833-16.214,0-10.032,6.799-16.831,16.736-16.831,3.994,0,6.514.855,7.607,1.427l-.999,3.375c-1.569-.76-3.804-1.331-6.466-1.331-7.513,0-12.505,4.803-12.505,13.218,0,7.846,4.517,12.886,12.314,12.886,2.52,0,5.087-.523,6.751-1.332l.856,3.281Z"/>
        <path d="M-778.89,1430.425v13.407h15.5v-13.407h4.184v32.046h-4.184v-15.024h-15.5v15.024h-4.136v-32.046h4.136Z"/>
        <path d="M-747.888,1430.425v32.046h-4.137v-32.046h4.137Z"/>
        <path d="M-734.574,1433.943h-9.747v-3.519h23.726v3.519h-9.794v28.527h-4.185v-28.527Z"/>
        <path d="M-715.412,1452.391l-3.328,10.08h-4.279l10.889-32.046h4.992l10.936,32.046h-4.422l-3.424-10.08h-11.363ZM-704.904,1449.158l-3.138-9.225c-.714-2.092-1.188-3.994-1.664-5.848h-.096c-.476,1.901-.998,3.851-1.616,5.8l-3.138,9.272h9.651Z"/>
        <path d="M-659.02,1461.425c-1.521.761-4.564,1.521-8.463,1.521-9.034,0-15.833-5.706-15.833-16.214,0-10.032,6.799-16.831,16.736-16.831,3.993,0,6.514.855,7.607,1.427l-.999,3.375c-1.568-.76-3.804-1.331-6.466-1.331-7.513,0-12.505,4.803-12.505,13.218,0,7.846,4.517,12.886,12.314,12.886,2.52,0,5.088-.523,6.752-1.332l.855,3.281Z"/>
        <path d="M-648.463,1452.391l-3.328,10.08h-4.279l10.889-32.046h4.992l10.936,32.046h-4.422l-3.424-10.08h-11.363ZM-637.955,1449.158l-3.138-9.225c-.714-2.092-1.188-3.994-1.664-5.848h-.096c-.476,1.901-.998,3.851-1.616,5.8l-3.138,9.272h9.651Z"/>
        <path d="M-624.545,1430.805c1.997-.333,4.612-.618,7.94-.618,4.089,0,7.085.951,8.986,2.663,1.759,1.521,2.806,3.851,2.806,6.704,0,2.9-.856,5.183-2.473,6.847-2.188,2.329-5.753,3.518-9.795,3.518-1.236,0-2.377-.047-3.328-.285v12.838h-4.137v-31.666ZM-620.408,1446.258c.903.237,2.045.332,3.424.332,4.992,0,8.035-2.425,8.035-6.847,0-4.231-2.996-6.275-7.561-6.275-1.807,0-3.186.143-3.898.332v12.458Z"/>
        <path d="M-595.111,1430.425v32.046h-4.137v-32.046h4.137Z"/>
        <path d="M-581.798,1433.943h-9.747v-3.519h23.726v3.519h-9.794v28.527h-4.185v-28.527Z"/>
        <path d="M-562.636,1452.391l-3.328,10.08h-4.279l10.889-32.046h4.992l10.936,32.046h-4.422l-3.423-10.08h-11.364ZM-552.128,1449.158l-3.138-9.225c-.714-2.092-1.188-3.994-1.664-5.848h-.096c-.476,1.901-.998,3.851-1.616,5.8l-3.138,9.272h9.651Z"/>
        <path d="M-538.718,1430.425h4.137v28.575h13.693v3.471h-17.83v-32.046Z"/>
        <path d="M-502.058,1430.425v32.046h-4.137v-32.046h4.137Z"/>
        <path d="M-494.83,1462.471v-32.046h4.518l10.27,16.213c2.377,3.756,4.231,7.132,5.753,10.413l.096-.048c-.381-4.279-.476-8.178-.476-13.171v-13.407h3.898v32.046h-4.184l-10.176-16.261c-2.234-3.566-4.374-7.228-5.99-10.698l-.143.048c.237,4.041.333,7.893.333,13.218v13.693h-3.899Z"/>
        <path d="M-456.506,1462.471l-10.46-32.046h4.469l4.993,15.785c1.379,4.326,2.567,8.226,3.423,11.981h.095c.904-3.709,2.235-7.75,3.661-11.934l5.421-15.833h4.422l-11.459,32.046h-4.564Z"/>
        <path d="M-420.416,1447.446h-12.457v11.554h13.884v3.471h-18.021v-32.046h17.307v3.471h-13.17v10.127h12.457v3.424Z"/>
        <path d="M-414.186,1457.431c1.854,1.142,4.564,2.092,7.417,2.092,4.231,0,6.704-2.234,6.704-5.468,0-2.995-1.712-4.707-6.038-6.371-5.23-1.854-8.464-4.564-8.464-9.081,0-4.992,4.137-8.701,10.365-8.701,3.281,0,5.658.761,7.085,1.569l-1.142,3.376c-1.046-.571-3.186-1.521-6.086-1.521-4.374,0-6.038,2.614-6.038,4.802,0,2.995,1.949,4.47,6.371,6.181,5.421,2.093,8.178,4.707,8.178,9.415,0,4.944-3.661,9.224-11.221,9.224-3.091,0-6.466-.903-8.178-2.045l1.046-3.471Z"/>
        <path d="M-384.087,1433.943h-9.747v-3.519h23.726v3.519h-9.794v28.527h-4.185v-28.527Z"/>
        <path d="M-339.534,1448.396c-.238-4.469-.523-9.842-.476-13.836h-.143c-1.094,3.757-2.425,7.75-4.042,12.172l-5.657,15.548h-3.139l-5.183-15.262c-1.521-4.518-2.805-8.654-3.708-12.458h-.096c-.095,3.994-.333,9.367-.618,14.169l-.855,13.741h-3.946l2.234-32.046h5.277l5.469,15.5c1.331,3.946,2.425,7.465,3.232,10.793h.143c.809-3.233,1.95-6.752,3.376-10.793l5.706-15.5h5.277l1.997,32.046h-4.042l-.808-14.074Z"/>
        <path d="M-311.718,1447.446h-12.457v11.554h13.884v3.471h-18.021v-32.046h17.308v3.471h-13.171v10.127h12.457v3.424Z"/>
        <path d="M-304.917,1462.471v-32.046h4.518l10.27,16.213c2.377,3.756,4.231,7.132,5.753,10.413l.096-.048c-.381-4.279-.476-8.178-.476-13.171v-13.407h3.898v32.046h-4.184l-10.175-16.261c-2.235-3.566-4.375-7.228-5.991-10.698l-.143.048c.237,4.041.333,7.893.333,13.218v13.693h-3.899Z"/>
        <path d="M-267.544,1433.943h-9.747v-3.519h23.726v3.519h-9.794v28.527h-4.185v-28.527Z"/>
        <path d="M-239.918,1430.425h4.137v28.575h13.693v3.471h-17.83v-32.046Z"/>
        <path d="M-213.338,1430.425v32.046h-4.137v-32.046h4.137Z"/>
        <path d="M-179.104,1448.396c-.238-4.469-.523-9.842-.476-13.836h-.143c-1.094,3.757-2.425,7.75-4.042,12.172l-5.657,15.548h-3.139l-5.183-15.262c-1.521-4.518-2.805-8.654-3.708-12.458h-.096c-.095,3.994-.333,9.367-.618,14.169l-.855,13.741h-3.946l2.234-32.046h5.278l5.468,15.5c1.331,3.946,2.425,7.465,3.232,10.793h.143c.809-3.233,1.95-6.752,3.376-10.793l5.706-15.5h5.277l1.997,32.046h-4.042l-.808-14.074Z"/>
        <path d="M-163.744,1430.425v32.046h-4.137v-32.046h4.137Z"/>
        <path d="M-150.431,1433.943h-9.747v-3.519h23.726v3.519h-9.794v28.527h-4.185v-28.527Z"/>
        <path d="M-116.291,1447.446h-12.457v11.554h13.884v3.471h-18.021v-32.046h17.307v3.471h-13.17v10.127h12.457v3.424Z"/>
        <path d="M-109.49,1430.853c2.521-.381,5.516-.666,8.796-.666,5.943,0,10.176,1.379,12.98,3.994,2.853,2.615,4.517,6.323,4.517,11.506,0,5.23-1.616,9.51-4.611,12.457-2.996,2.996-7.94,4.612-14.169,4.612-2.948,0-5.421-.143-7.513-.38v-31.523ZM-105.354,1459.19c1.046.189,2.567.237,4.185.237,8.843,0,13.646-4.945,13.646-13.599.048-7.56-4.231-12.361-12.98-12.361-2.14,0-3.756.189-4.85.428v25.295Z"/>
      </g>
      <path d="M-568.345,1941.72v-35.87h-51.3v210.6h51.3v-36.73l-32.67-42.92v-52.08l32.67-43ZM-435.485,2115.64c-16.76-5.16-31.68-14.01-43.65-26.1-17.36-17.53-27.97-41.36-30.51-68.05l-9.8-12.44,9.75-12.33c2.45-26.92,13.08-50.99,30.55-68.71,9.28-9.42,20.33-16.86,32.63-22.16h-21.63l-81.54,103.13,84.65,107.47h30.19l-.64-.81Z"/>
      <path d="M-556.055,2008.97l81.6-103.2h-60.3l-61.26,80.63v48.71l61.86,81.26h62.7l-84.6-107.4Z"/>
      <path d="M-399.346,1901.45c50.101,0,87.901,28.2,99.901,73.801h-56.4c-8.7-18-24.601-27.001-44.101-27.001-31.5,0-53.101,23.4-53.101,60.602s21.601,60.601,53.101,60.601c19.5,0,35.4-9.001,44.101-27.001h56.4c-12,45.601-49.801,73.501-99.901,73.501-62.101,0-105.901-44.101-105.901-107.101s43.801-107.401,105.901-107.401Z"/>
      <path d="M-309.442,1904.349h51.3v210.603h-51.3v-210.603Z"/>
      <g>
        <g>
          <path class="cls-5" d="M1013.142,2041.651l-15.34-20.15v20.15h-11.115v-45.63h11.115v20.02l15.21-20.02h13.065l-17.68,22.36,18.329,23.27h-13.585Z"/>
          <path class="cls-5" d="M1056.106,2004.927v9.229h14.885v8.58h-14.885v10.01h16.835v8.905h-27.95v-45.63h27.95v8.905h-16.835Z"/>
          <path class="cls-5" d="M1094.196,2006.714c1.949-3.531,4.669-6.282,8.157-8.255,3.487-1.972,7.442-2.958,11.862-2.958,5.416,0,10.053,1.431,13.91,4.29,3.856,2.86,6.435,6.761,7.735,11.7h-12.221c-.909-1.906-2.199-3.357-3.867-4.354-1.669-.997-3.564-1.495-5.688-1.495-3.424,0-6.197,1.192-8.32,3.575s-3.185,5.568-3.185,9.555,1.062,7.172,3.185,9.555c2.123,2.384,4.896,3.575,8.32,3.575,2.123,0,4.019-.498,5.688-1.495,1.668-.996,2.958-2.447,3.867-4.354h12.221c-1.301,4.939-3.879,8.829-7.735,11.667-3.857,2.839-8.494,4.258-13.91,4.258-4.42,0-8.375-.985-11.862-2.958-3.488-1.971-6.208-4.712-8.157-8.223-1.95-3.51-2.926-7.518-2.926-12.024s.976-8.525,2.926-12.058Z"/>
          <path class="cls-5" d="M1195.205,1996.021v45.63h-11.115v-18.785h-17.29v18.785h-11.114v-45.63h11.114v17.875h17.29v-17.875h11.115Z"/>
          <path class="cls-5" d="M1227.314,1996.021v45.63h-11.114v-45.63h11.114Z"/>
          <path class="cls-5" d="M1281.2,1996.021v8.905h-12.091v36.725h-11.114v-36.725h-12.091v-8.905h35.296Z"/>
          <path class="cls-5" d="M1328.193,2033.592h-17.029l-2.73,8.06h-11.635l16.51-45.63h12.87l16.51,45.63h-11.765l-2.73-8.06ZM1325.334,2025.012l-5.655-16.705-5.59,16.705h11.245Z"/>
          <path class="cls-5" d="M1388.514,2006.714c1.949-3.531,4.669-6.282,8.157-8.255,3.487-1.972,7.442-2.958,11.862-2.958,5.416,0,10.053,1.431,13.91,4.29,3.856,2.86,6.435,6.761,7.735,11.7h-12.221c-.909-1.906-2.199-3.357-3.867-4.354-1.669-.997-3.564-1.495-5.688-1.495-3.424,0-6.197,1.192-8.32,3.575s-3.185,5.568-3.185,9.555,1.062,7.172,3.185,9.555c2.123,2.384,4.896,3.575,8.32,3.575,2.123,0,4.019-.498,5.688-1.495,1.668-.996,2.958-2.447,3.867-4.354h12.221c-1.301,4.939-3.879,8.829-7.735,11.667-3.857,2.839-8.494,4.258-13.91,4.258-4.42,0-8.375-.985-11.862-2.958-3.488-1.971-6.208-4.712-8.157-8.223-1.95-3.51-2.926-7.518-2.926-12.024s.976-8.525,2.926-12.058Z"/>
          <path class="cls-5" d="M1478.407,2033.592h-17.029l-2.73,8.06h-11.635l16.51-45.63h12.87l16.51,45.63h-11.765l-2.73-8.06ZM1475.548,2025.012l-5.655-16.705-5.59,16.705h11.245Z"/>
          <path class="cls-5" d="M1543.863,2017.959c-1.214,2.188-3.078,3.955-5.591,5.298-2.514,1.343-5.633,2.015-9.359,2.015h-6.891v16.38h-11.114v-45.63h18.005c3.64,0,6.716.629,9.229,1.885,2.513,1.258,4.398,2.99,5.655,5.2s1.885,4.745,1.885,7.604c0,2.645-.607,5.061-1.819,7.248ZM1532.812,2014.937c1.04-.996,1.561-2.405,1.561-4.226s-.521-3.228-1.561-4.225c-1.04-.996-2.622-1.495-4.744-1.495h-6.046v11.44h6.046c2.122,0,3.704-.498,4.744-1.495Z"/>
          <path class="cls-5" d="M1575.582,1996.021v45.63h-11.114v-45.63h11.114Z"/>
          <path class="cls-5" d="M1629.468,1996.021v8.905h-12.091v36.725h-11.114v-36.725h-12.091v-8.905h35.296Z"/>
          <path class="cls-5" d="M1676.461,2033.592h-17.029l-2.73,8.06h-11.635l16.51-45.63h12.87l16.51,45.63h-11.765l-2.73-8.06ZM1673.602,2025.012l-5.655-16.705-5.59,16.705h11.245Z"/>
          <path class="cls-5" d="M1720.076,2033.071h14.561v8.58h-25.675v-45.63h11.114v37.05Z"/>
        </g>
        <g>
          <path class="cls-6" d="M1250.935,1845.08v-28.149h-40.258v165.27h40.258v-28.824l-25.638-33.682v-40.87l25.638-33.745ZM1320.935,1834.321c7.283-7.392,15.954-13.231,25.607-17.39h-16.974l-63.989,80.932,40.705,51.676,3.547-2.605c-7.063-11.426-11.457-24.806-12.831-39.254l-7.691-9.762,7.651-9.676c1.923-21.126,10.265-40.015,23.974-53.921ZM1355.198,1981.565c-12.054-3.712-22.899-9.856-31.853-18.151l-3.531,3.304,12.195,15.483h23.692l-.502-.636Z"/>
          <path class="cls-6" d="M1316.933,1969.401l-2.135,1.993c-1.201,1.114-2.488,1.97-3.837,2.535-1.35.581-2.762.871-4.198.871-4.842,0-9.323-3.382-10.908-8.216-1.554-4.74.118-9.48,4.465-12.666l2.802-2.056-42.542-54.007,64.036-80.987h-47.321l-48.074,63.275v38.226l48.545,63.769h49.204l-10.037-12.737Z"/>
          <path class="cls-7" d="M1450.491,1846.116c-9.692,5.274-18.685,12.313-26.839,20.113l.863,1.083c1.052,1.318,2.032,2.684,2.943,4.081h34.498c-2.48-9.425-6.364-17.9-11.465-25.277ZM1447.414,1841.98c-14.463-18.089-36.891-28.502-63.856-28.502-48.733,0-83.106,34.843-83.106,84.283,0,17.869,4.489,33.799,12.525,46.858l22.962-16.865c-5.823-10.029-8.264-21.785-6.882-33.352l.416-3.461-4.018-4.285,2.974-3.602,2.692,1.695c2.731-8.781,7.738-16.778,14.471-23.119l3.971-3.735v.965h7.769c4.528-3.681,9.88-6.27,15.883-7.604v-8.467h22.452v9.221c.612.18,1.216.385,1.813.604v-27.098h22.483v30.919c8.522-5.329,17.72-10.178,27.451-14.455ZM1430.872,1924.129c-3.312,6.874-8.091,13.011-14.133,18.018-9.621,7.973-21.793,12.368-34.27,12.368-13.129,0-25.607-4.693-35.393-13.262l-20.851,19.478c14.502,13.364,34.317,21.079,57.334,21.079,39.316,0,68.98-21.895,78.397-57.68h-31.084Z"/>
          <path class="cls-5" d="M1494.366,1815.754v165.27h-40.258v-30.009c5.203-7.651,9.135-16.354,11.646-25.889l1.295-4.92h-12.941v-44.888h12.941l-1.295-4.92c-2.527-9.613-6.482-18.301-11.646-25.897v-28.746h40.258Z"/>
          <g>
            <path class="cls-6" d="M1369.042,1910.776v-49.564h-17.768v39.016l-24.097-15.18,45.497,48.586s31.992-68.246,80.947-91.756c-14.071,5.807-25.967,12.266-36.015,18.856v-32.862h-17.768v46.106c-2.327,1.957-4.502,3.915-6.525,5.828v-34.667h-17.747v54.936c-3.893,5.502-5.894,9.395-6.524,10.7Z"/>
            <path class="cls-5" d="M1339.073,1928.37l-37.363,27.446c-10.613,7.786,1.849,22.836,11.483,13.854l33.862-31.622c18.616,17.703,47.933,19.073,68.181,2.284,21.596-17.899,24.793-49.716,7.438-71.552-.348.326-.674.652-1,.979v12.136c6.959,14.419,5.372,31.644-4.067,44.562v-52.5c-6.372,6.764-12.309,14.071-17.768,21.596v45.127c-2.131.935-4.306,1.675-6.525,2.24v-37.951c-.957,1.435-1.914,2.914-2.849,4.371-3.806,5.981-7.416,12.114-10.765,18.356-1.327,2.436-2.632,4.937-3.806,7.438l-.326.718v7.895c-2.218-.348-4.393-.87-6.524-1.566v-7.22l-17.768-19.008v15.224c-.805-.848-1.588-1.718-2.349-2.632-6.285-7.568-9.569-16.659-9.982-25.793l-7.547-8.069c-1.37,11.483,1.131,23.423,7.677,33.688ZM1340.378,1889.55c1.348-5.089,3.632-9.982,6.829-14.376v-11.831c-6.655,6.263-11.309,13.941-13.854,22.161l7.025,4.045Z"/>
          </g>
        </g>
        <g>
          <path class="cls-7" d="M1094.921,2085.852v-31.649h4.556v31.649h-4.556ZM1094.921,2054.202v31.649h4.556v-31.649h-4.556ZM1099.325,2054.354h-4.252v31.346h4.252v-31.346Z"/>
          <path class="cls-7" d="M1129.075,2054.256v31.451l-4.556-4.556-15.961-15.962h0s-4.556-4.555-4.556-4.555v-6.442l20.517,20.517v-20.453h4.556ZM1104.003,2063.857l4.556,4.556v17.438h-4.556v-21.994Z"/>
          <path class="cls-7" d="M1148.616,2072.256l-2.993,5.461-13.042-23.562h6.018l10.018,18.102ZM1167.669,2054.154l-14.535,26.261-3.01,5.437v-.003s-3.008-5.434-3.008-5.434l3.008-5.435,11.525-20.826h6.02Z"/>
          <path class="cls-7" d="M1199.603,2054.268v4.556h-27.93v-4.556h27.93ZM1176.228,2081.296h23.375v4.556h-27.93v-24.75h4.555v5.536h20.315v4.556h-20.315v10.103Z"/>
          <path class="cls-7" d="M1229.365,2072.331c.756,1.32,1.188,2.852,1.188,4.482s-.432,3.161-1.188,4.482c-1.559,2.722-4.49,4.556-7.851,4.556h-9.841c-3.363,0-6.297-1.834-7.859-4.556-.72-1.257-1.149-2.704-1.192-4.249h4.561c.131,2.366,2.094,4.249,4.491,4.249h9.841c2.472,0,4.482-2.011,4.482-4.482s-2.011-4.482-4.482-4.482h-9.854c-2.543,0-4.841-1.051-6.482-2.741-.528-.544-.988-1.152-1.368-1.814-.756-1.321-1.188-2.853-1.188-4.483s.432-3.161,1.188-4.482c1.559-2.721,4.49-4.556,7.851-4.556h9.605c.078-.003.156-.004.235-.004.078,0,.156,0,.235.004,3.265.082,6.098,1.894,7.624,4.552.002,0,.002.003.003.004.719,1.256,1.146,2.701,1.189,4.244h-4.561c-.127-2.311-2.003-4.16-4.324-4.244h-10.008c-2.472,0-4.482,2.011-4.482,4.482,0,2.322,1.773,4.236,4.037,4.461.152-.008.306-.013.459-.013.266,0,.527.013.786.035h9.055c3.36,0,6.292,1.834,7.851,4.556Z"/>
          <path class="cls-7" d="M1235.099,2058.828v-4.556h28.177v4.556h-28.177ZM1246.665,2085.852v-24.746h4.556v24.746h-4.556Z"/>
          <path class="cls-7" d="M1295.984,2054.362v31.489h-4.556v-20.491l-6.198,6.2-1.49,1.488-1.734,1.731-9.638-9.639v.002l-4.556-4.556v-6.444l14.195,14.195,13.977-13.977ZM1267.812,2063.808l4.556,4.555v17.489h-4.556v-22.044Z"/>
          <path class="cls-7" d="M1328.985,2054.268v4.556h-27.931v-4.556h27.931ZM1305.61,2081.296h23.375v4.556h-27.931v-24.75h4.556v5.536h20.314v4.556h-20.314v10.103Z"/>
          <path class="cls-7" d="M1358.646,2054.256v31.451l-4.556-4.556-15.961-15.962h0s-4.556-4.555-4.556-4.555v-6.442l20.517,20.517v-20.453h4.556ZM1333.573,2063.857l4.556,4.556v17.438h-4.556v-21.994Z"/>
          <path class="cls-7" d="M1363.196,2058.828v-4.556h28.177v4.556h-28.177ZM1374.763,2085.852v-24.746h4.556v24.746h-4.556Z"/>
          <path class="cls-7" d="M1441.267,2081.296v4.556h-24.577v-31.83h4.556v27.274h20.021Z"/>
          <path class="cls-7" d="M1445.79,2085.852v-31.649h4.556v31.649h-4.556ZM1445.79,2054.202v31.649h4.556v-31.649h-4.556ZM1450.194,2054.354h-4.252v31.346h4.252v-31.346Z"/>
          <path class="cls-7" d="M1483.044,2054.362v31.489h-4.556v-20.491l-6.198,6.2-1.49,1.488-1.734,1.731-9.638-9.639v.002l-4.556-4.556v-6.444l14.195,14.195,13.977-13.977ZM1454.872,2063.808l4.556,4.555v17.489h-4.556v-22.044Z"/>
          <path class="cls-7" d="M1487.586,2085.852v-31.649h4.556v31.649h-4.556ZM1487.586,2054.202v31.649h4.556v-31.649h-4.556ZM1491.99,2054.354h-4.252v31.346h4.252v-31.346Z"/>
          <path class="cls-7" d="M1496.668,2058.828v-4.556h28.177v4.556h-28.177ZM1508.234,2085.852v-24.746h4.556v24.746h-4.556Z"/>
          <path class="cls-7" d="M1557.841,2054.268v4.556h-27.931v-4.556h27.931ZM1534.466,2081.296h23.375v4.556h-27.931v-24.75h4.556v5.536h20.314v4.556h-20.314v10.103Z"/>
          <path class="cls-7" d="M1590.873,2070.121c0,.79-.059,1.565-.171,2.323-1.03,7.021-6.667,12.548-13.744,13.407h-14.529v-24.735h4.556v20.18h9.669c4.692-.679,8.458-4.255,9.424-8.852.156-.75.24-1.527.24-2.323,0-.764-.076-1.511-.222-2.232-.553-2.748-2.108-5.139-4.265-6.772-1.771-1.342-3.948-2.175-6.312-2.277h-13.09v-4.572h12.775l.002.008c7.914.088,14.434,5.977,15.509,13.614.104.729.158,1.475.158,2.232Z"/>
        </g>
        <g>
          <path class="cls-6" d="M1422.742,2095.601l-6.9,13.29v7.56h-3.42v-7.56l-6.93-13.29h3.81l4.83,10.229,4.83-10.229h3.78Z"/>
          <path class="cls-6" d="M1428.382,2115.655c-1.26-.71-2.25-1.71-2.97-3-.721-1.29-1.08-2.785-1.08-4.485,0-1.68.369-3.169,1.109-4.47.74-1.3,1.75-2.3,3.03-3,1.279-.7,2.71-1.05,4.29-1.05s3.01.35,4.29,1.05c1.279.7,2.29,1.7,3.03,3,.739,1.301,1.109,2.79,1.109,4.47s-.38,3.171-1.14,4.471c-.761,1.3-1.796,2.305-3.105,3.015s-2.755,1.064-4.335,1.064c-1.56,0-2.97-.354-4.229-1.064ZM1435.087,2113.12c.77-.42,1.395-1.05,1.875-1.89.479-.84.72-1.86.72-3.061s-.23-2.215-.69-3.045c-.46-.829-1.069-1.455-1.829-1.875-.761-.42-1.581-.63-2.461-.63s-1.694.21-2.444.63-1.346,1.046-1.785,1.875c-.44.83-.66,1.845-.66,3.045,0,1.78.455,3.155,1.365,4.125.91.971,2.055,1.455,3.435,1.455.88,0,1.705-.21,2.476-.63Z"/>
          <path class="cls-6" d="M1459.552,2099.92v16.53h-3.421v-1.95c-.54.681-1.244,1.215-2.114,1.605-.87.39-1.796.585-2.775.585-1.3,0-2.465-.271-3.495-.811s-1.84-1.34-2.43-2.399c-.59-1.061-.885-2.34-.885-3.84v-9.721h3.39v9.21c0,1.48.37,2.615,1.11,3.405.739.79,1.749,1.185,3.029,1.185s2.295-.395,3.045-1.185,1.125-1.925,1.125-3.405v-9.21h3.421Z"/>
          <path class="cls-6" d="M1469.466,2100.355c.83-.47,1.815-.705,2.955-.705v3.54h-.87c-1.34,0-2.354.34-3.045,1.02-.689.681-1.035,1.86-1.035,3.54v8.7h-3.42v-16.53h3.42v2.4c.5-.84,1.165-1.495,1.995-1.965Z"/>
          <path class="cls-6" d="M1498.46,2101.601c-.54-1.04-1.29-1.825-2.25-2.355-.96-.529-2.069-.795-3.33-.795-1.38,0-2.609.311-3.689.93-1.08.62-1.925,1.5-2.535,2.641-.61,1.14-.915,2.46-.915,3.96s.305,2.825.915,3.975c.61,1.15,1.455,2.035,2.535,2.655s2.31.93,3.689.93c1.86,0,3.37-.52,4.53-1.56s1.87-2.45,2.13-4.23h-7.83v-2.729h11.49v2.67c-.22,1.62-.795,3.11-1.725,4.47-.931,1.36-2.141,2.445-3.63,3.255-1.49.811-3.146,1.215-4.966,1.215-1.96,0-3.75-.454-5.369-1.364-1.62-.91-2.905-2.176-3.855-3.796-.95-1.619-1.425-3.449-1.425-5.489s.475-3.87,1.425-5.49,2.24-2.885,3.87-3.795,3.415-1.365,5.354-1.365c2.221,0,4.195.545,5.926,1.635,1.729,1.091,2.984,2.636,3.765,4.636h-4.11Z"/>
          <path class="cls-6" d="M1511.976,2100.355c.829-.47,1.814-.705,2.955-.705v3.54h-.87c-1.341,0-2.355.34-3.045,1.02-.69.681-1.035,1.86-1.035,3.54v8.7h-3.42v-16.53h3.42v2.4c.5-.84,1.165-1.495,1.995-1.965Z"/>
          <path class="cls-6" d="M1521.02,2115.655c-1.26-.71-2.25-1.71-2.97-3s-1.08-2.785-1.08-4.485c0-1.68.37-3.169,1.11-4.47.739-1.3,1.75-2.3,3.029-3,1.28-.7,2.71-1.05,4.29-1.05s3.011.35,4.29,1.05c1.28.7,2.29,1.7,3.03,3,.74,1.301,1.11,2.79,1.11,4.47s-.381,3.171-1.141,4.471-1.795,2.305-3.104,3.015c-1.311.71-2.756,1.064-4.335,1.064-1.561,0-2.97-.354-4.23-1.064ZM1527.725,2113.12c.77-.42,1.396-1.05,1.875-1.89.48-.84.721-1.86.721-3.061s-.23-2.215-.69-3.045c-.46-.829-1.07-1.455-1.83-1.875-.761-.42-1.58-.63-2.46-.63s-1.695.21-2.445.63-1.345,1.046-1.785,1.875c-.439.83-.659,1.845-.659,3.045,0,1.78.454,3.155,1.364,4.125.91.971,2.056,1.455,3.436,1.455.88,0,1.705-.21,2.475-.63Z"/>
          <path class="cls-6" d="M1559.42,2099.92l-5.131,16.53h-3.6l-3.33-12.21-3.33,12.21h-3.6l-5.16-16.53h3.479l3.45,13.29,3.511-13.29h3.569l3.36,13.23,3.42-13.23h3.36Z"/>
          <path class="cls-6" d="M1565.96,2102.71v9.15c0,.62.145,1.064.435,1.335.29.27.784.405,1.485.405h2.1v2.85h-2.7c-1.54,0-2.72-.36-3.54-1.08s-1.229-1.89-1.229-3.51v-9.15h-1.95v-2.79h1.95v-4.109h3.45v4.109h4.02v2.79h-4.02Z"/>
          <path class="cls-6" d="M1585.054,2100.46c.99.54,1.771,1.341,2.341,2.4.569,1.061.854,2.34.854,3.84v9.75h-3.39v-9.24c0-1.479-.37-2.614-1.11-3.404s-1.75-1.186-3.03-1.186-2.295.396-3.045,1.186-1.125,1.925-1.125,3.404v9.24h-3.42v-22.2h3.42v7.59c.58-.699,1.315-1.239,2.205-1.62.89-.379,1.865-.569,2.925-.569,1.261,0,2.386.27,3.375.81Z"/>
          <path class="cls-6" d="M1603.339,2115.655c-1.26-.71-2.25-1.71-2.97-3-.721-1.29-1.08-2.785-1.08-4.485,0-1.68.369-3.169,1.109-4.47.74-1.3,1.75-2.3,3.03-3,1.279-.7,2.71-1.05,4.29-1.05s3.01.35,4.29,1.05c1.279.7,2.29,1.7,3.03,3,.739,1.301,1.109,2.79,1.109,4.47s-.38,3.171-1.14,4.471c-.761,1.3-1.796,2.305-3.105,3.015s-2.755,1.064-4.335,1.064c-1.56,0-2.97-.354-4.229-1.064ZM1610.044,2113.12c.77-.42,1.395-1.05,1.875-1.89.479-.84.72-1.86.72-3.061s-.23-2.215-.69-3.045c-.46-.829-1.069-1.455-1.829-1.875-.761-.42-1.581-.63-2.461-.63s-1.694.21-2.444.63-1.346,1.046-1.785,1.875c-.44.83-.66,1.845-.66,3.045,0,1.78.455,3.155,1.365,4.125.91.971,2.055,1.455,3.435,1.455.88,0,1.705-.21,2.476-.63Z"/>
          <path class="cls-6" d="M1634.509,2099.92v16.53h-3.421v-1.95c-.54.681-1.244,1.215-2.114,1.605-.87.39-1.796.585-2.775.585-1.3,0-2.465-.271-3.495-.811s-1.84-1.34-2.43-2.399c-.59-1.061-.885-2.34-.885-3.84v-9.721h3.39v9.21c0,1.48.37,2.615,1.11,3.405.739.79,1.749,1.185,3.029,1.185s2.295-.395,3.045-1.185,1.125-1.925,1.125-3.405v-9.21h3.421Z"/>
          <path class="cls-6" d="M1644.423,2100.355c.83-.47,1.815-.705,2.955-.705v3.54h-.87c-1.34,0-2.354.34-3.045,1.02-.689.681-1.035,1.86-1.035,3.54v8.7h-3.42v-16.53h3.42v2.4c.5-.84,1.165-1.495,1.995-1.965Z"/>
          <path class="cls-6" d="M1664.117,2100.431c1-.521,2.13-.78,3.391-.78,1.439,0,2.755.355,3.944,1.064,1.189.711,2.125,1.706,2.806,2.985.68,1.28,1.02,2.75,1.02,4.41s-.34,3.146-1.02,4.455c-.681,1.31-1.616,2.33-2.806,3.06-1.189.73-2.505,1.095-3.944,1.095-1.261,0-2.381-.255-3.36-.765-.98-.51-1.78-1.145-2.4-1.905v10.261h-3.42v-24.391h3.42v2.431c.58-.76,1.37-1.4,2.37-1.92ZM1671.093,2105.155c-.471-.83-1.091-1.46-1.86-1.89-.771-.431-1.595-.646-2.475-.646-.86,0-1.676.221-2.445.66-.771.44-1.391,1.08-1.86,1.92s-.705,1.83-.705,2.97.235,2.136.705,2.985c.47.851,1.09,1.495,1.86,1.935.77.44,1.585.66,2.445.66.88,0,1.704-.225,2.475-.675.77-.45,1.39-1.104,1.86-1.965.47-.859.705-1.86.705-3s-.235-2.125-.705-2.955Z"/>
          <path class="cls-6" d="M1684.082,2100.355c.83-.47,1.815-.705,2.955-.705v3.54h-.87c-1.34,0-2.354.34-3.045,1.02-.689.681-1.035,1.86-1.035,3.54v8.7h-3.42v-16.53h3.42v2.4c.5-.84,1.165-1.495,1.995-1.965Z"/>
          <path class="cls-6" d="M1690.367,2097.101c-.421-.42-.631-.94-.631-1.561s.21-1.14.631-1.56c.42-.42.939-.63,1.56-.63.6,0,1.11.21,1.53.63s.63.94.63,1.56-.21,1.141-.63,1.561-.931.63-1.53.63c-.62,0-1.14-.21-1.56-.63ZM1693.606,2099.92v16.53h-3.42v-16.53h3.42Z"/>
          <path class="cls-6" d="M1698.002,2103.7c.689-1.279,1.63-2.274,2.819-2.985,1.19-.709,2.516-1.064,3.976-1.064,1.08,0,2.145.235,3.194.705,1.051.47,1.886,1.095,2.506,1.875v-7.98h3.449v22.2h-3.449v-2.49c-.561.801-1.335,1.46-2.325,1.98-.99.52-2.126.779-3.405.779-1.439,0-2.755-.364-3.945-1.095-1.189-.729-2.13-1.75-2.819-3.06-.69-1.31-1.035-2.795-1.035-4.455s.345-3.13,1.035-4.41ZM1709.792,2105.2c-.471-.84-1.086-1.479-1.846-1.92-.76-.439-1.58-.66-2.46-.66s-1.7.215-2.46.646c-.76.43-1.375,1.06-1.845,1.89s-.705,1.814-.705,2.955.235,2.141.705,3c.47.86,1.09,1.515,1.86,1.965.77.45,1.585.675,2.444.675.88,0,1.7-.22,2.46-.66.76-.439,1.375-1.084,1.846-1.935.47-.85.705-1.845.705-2.985s-.235-2.13-.705-2.97Z"/>
          <path class="cls-6" d="M1733.477,2109.46h-12.63c.1,1.32.59,2.381,1.47,3.181s1.96,1.199,3.24,1.199c1.84,0,3.14-.77,3.899-2.31h3.69c-.5,1.521-1.405,2.765-2.715,3.735-1.311.97-2.936,1.454-4.875,1.454-1.58,0-2.995-.354-4.245-1.064s-2.23-1.71-2.94-3-1.064-2.785-1.064-4.485.345-3.194,1.035-4.484c.689-1.29,1.659-2.285,2.91-2.985,1.249-.7,2.685-1.05,4.305-1.05,1.56,0,2.95.34,4.17,1.02,1.22.681,2.17,1.636,2.85,2.865.68,1.23,1.021,2.646,1.021,4.245,0,.62-.04,1.181-.12,1.68ZM1730.026,2106.7c-.02-1.26-.47-2.27-1.35-3.03-.881-.76-1.971-1.14-3.271-1.14-1.18,0-2.189.375-3.029,1.125-.841.75-1.341,1.766-1.5,3.045h9.149Z"/>
        </g>
        <rect class="cls-5" x="982.375" y="2104.181" width="412.667" height="5.333"/>
      </g>
      <g>
        <path class="cls-5" d="M553.985,581.876h-.853c-33.533,0-66.691,4.855-84.498,7.469-4.163.622-7.575,1.12-10.083,1.419l-8.603,1.07,3.11-176.219,8.979,1.942c9.681,2.116,19.363,4.606,28.818,7.444l.627-43.893,8.979,1.941c9.681,2.092,19.338,4.581,28.818,7.419l.778-65.18,9.029,1.942c15.049,3.237,29.546,7.27,43.365,12.025l93.954-117.936h-151.239l-176.07,230.047v-230.047h-128.666v524.326h128.666v-231.54l177.574,231.54h157.259l-129.945-163.771Z"/>
        <path class="cls-6" d="M756.666,568.88c-3.712,7.643-7.976,14.639-12.716,20.963,8.126-6.597,15.751-13.594,22.824-20.963h-10.108ZM786.713,568.88c-23.401,26.988-55.655,53.304-100.224,73.968l-6.546-10.731c-1.405.374-2.834.697-4.264.996-.15,4.482-.752,9.037-1.781,13.693l-14.873-1.743c.05-3.311-.075-6.473-.426-9.486-4.113.348-8.302.523-12.541.523-16.177,0-31.301-2.44-45.146-7.121l94.681,119.306c101.503-15.511,176.396-80.84,202.53-179.406h-111.41ZM898.124,401.574c-26.862-101.355-105.316-168.178-211.258-181.348l-96.914,121.695-4.966,6.224c3.185-1.618,6.471-3.087,9.832-4.407,15.45-6.149,32.656-9.386,51.241-9.386,48.908,0,88.787,22.407,110.608,67.221h.602c-.451-2.315-.677-4.706-.677-7.146,0-20.913,17.156-37.943,38.224-37.943,19.613,0,35.791,14.739,37.973,33.636,1.053-3.212,1.931-6.572,2.608-10.083l14.773.075c.702,3.834,1.354,11.303,1.179,21.461h46.776Z"/>
        <g>
          <path class="cls-4" d="M794.816,363.957c-16.958,0-30.706,13.646-30.706,30.48s13.748,30.48,30.706,30.48,30.706-13.646,30.706-30.48-13.747-30.48-30.706-30.48"/>
          <path class="cls-2" d="M727.151,557.491c19.719-159.972-157.045-198.198-175.548-203.799l-1.552,130.202c172.52,17.258,132.029,123.375,132.029,123.375,10.529-86.016-70.105-103.005-146.53-110.511l1.933-162.229c109.33,23.643,219.776,98.238,189.669,222.962"/>
          <path class="cls-1" d="M536.508,416.289c-11.616-3.681-20.167-5.772-23.517-6.786l-1.331,111.736c159.541,2.906,171.171,65.29,163.678,103.387,2.059-89.229-121.681-88.192-178.504-86.81l2.038-147.476c12.668,2.739,25.347,6.17,37.822,10.278l-.185,15.671Z"/>
          <path class="cls-3" d="M498.066,450.81c-11.616-3.681-20.166-5.772-23.516-6.786l-2.159,121.196c164.179-21.515,205.123,30.762,194.156,79.979,1.921-100.493-177.266-65.77-208.932-61.845l2.815-158.492c12.668,2.739,25.347,6.169,37.823,10.278l-.187,15.671Z"/>
          <path class="cls-2" d="M591.269,408.659c-3.528-1.571-5.839-2.857-6.917-3.871-1.097-1.018-1.559-2.396-1.407-4.139.273-3.107,1.963-4.518,5.057-4.251,3.819.329,6.213,2.961,7.202,7.896l10.917-2.244c-1.424-7.661-5.385-12.487-11.875-14.484l.821-9.382-8.905-.768-.801,9.152c-3.822.246-7.197,1.415-10.131,3.499-3.889,2.777-6.056,6.717-6.504,11.835-.319,3.647.541,6.942,2.595,9.924,2.056,2.964,6.084,5.681,12.047,8.169,3.271,1.349,5.447,2.532,6.526,3.53,1.096,1.018,1.559,2.396,1.404,4.157-.286,3.268-2.419,4.731-6.4,4.388-4.649-.401-7.24-3.302-7.769-8.704l-11.999.882c.342,9.687,5.49,15.422,15.43,17.187l-.788,9.015,8.905.768.82-9.376c3.828-.397,7.061-1.629,9.71-3.689,3.855-3.016,6.006-6.974,6.437-11.896.248-2.837-.185-5.39-1.296-7.693-1.129-2.306-2.579-4.077-4.401-5.338-1.806-1.241-4.697-2.775-8.678-4.566"/>
          <path class="cls-4" d="M589.951,341.92l-4.966,6.224c3.185-1.618,6.471-3.087,9.832-4.407-1.605-.622-3.235-1.219-4.866-1.817Z"/>
          <path class="cls-4" d="M645.773,360.244c114.534,67.485,139.389,199.057,37.518,275.837,166.05-77.025,163.29-233.827,159.485-254.647-6.303,32.648-27.627,53.207-51.274,52.06-17.795-.862-39.575-18.808-54.012-28.767-24.934-17.2-53.548-35.785-91.716-44.484"/>
        </g>
        <path class="cls-6" d="M535.952,35.158c-248.854,0-450.598,200.26-450.598,447.285s201.743,447.285,450.598,447.285,450.598-200.26,450.598-447.285S784.807,35.158,535.952,35.158ZM535.952,922.455c-244.422,0-443.271-197.387-443.271-440.012S291.531,42.431,535.952,42.431s443.271,197.387,443.271,440.012-198.849,440.012-443.271,440.012Z"/>
        <path class="cls-5" d="M955.421,668.96c-67.28,190.245-245.98,326.24-455.817,326.24-267.531,0-484.389-220.978-484.389-493.53S232.073,8.08,499.604,8.08c81.627,0,158.492,20.529,225.894,56.924-57.755-25.88-121.799-40.313-189.262-40.313-254.039,0-459.968,204.243-459.968,456.202s205.929,456.263,459.968,456.263c186.393,0,346.899-110.053,419.186-268.196Z"/>
      </g>
    </g>
  </g>
</svg>